<svg width="1341" height="301" viewBox="0 0 1341 301" fill="none" xmlns="http://www.w3.org/2000/svg">
<g clip-path="url(#clip0_25_1253)">
<rect x="0.875" y="0.562378" width="1339.69" height="300" rx="8.4375" fill="white"/>
<circle cx="1173.54" cy="150.942" r="262.086" transform="rotate(-30 1173.54 150.942)" fill="#3D74FF"/>
<path d="M1274.09 394.133C1235.52 371.869 1207.42 335.144 1195.95 292.039C1184.48 248.933 1190.58 202.977 1212.93 164.281C1235.27 125.584 1272.01 97.3166 1315.08 85.6969C1358.14 74.0773 1404 80.0571 1442.56 102.321L1406.54 164.719C1384.47 151.977 1358.22 148.554 1333.57 155.205C1308.93 161.855 1287.89 178.034 1275.11 200.181C1262.32 222.329 1258.83 248.631 1265.39 273.302C1271.95 297.973 1288.04 318.992 1310.11 331.734L1274.09 394.133Z" fill="#779DFF"/>
</g>
<defs>
<clipPath id="clip0_25_1253">
<rect x="0.875" y="0.562378" width="1339.69" height="300" rx="8.4375" fill="white"/>
</clipPath>
</defs>
</svg>
